<?xml version="1.0" encoding="UTF-8" standalone="no"?>
<!-- Created with Inkscape (http://www.inkscape.org/) -->

<svg
   width="229.66837mm"
   height="125.36252mm"
   viewBox="0 0 229.66837 125.36252"
   version="1.1"
   id="svg208"
   xmlns="http://www.w3.org/2000/svg"
   xmlns:svg="http://www.w3.org/2000/svg">
  <defs
     id="defs205">
    <clipPath
       clipPathUnits="userSpaceOnUse"
       id="clipPath18">
      <path
         d="M 0,612.288 H 858.897 V 0 H 0 Z"
         id="path16" />
    </clipPath>
  </defs>
  <g
     id="layer1"
     transform="translate(7.7844188,1.4069906)">
    <g
       id="g12"
       transform="matrix(0.35277777,0,0,-0.35277777,-44.450211,169.27492)">
      <g
         id="g14"
         clip-path="url(#clipPath18)">
        <g
           id="g20"
           transform="translate(219.124,205.0371)">
          <path
             d="m 0,0 c 4.156,0 6.551,1.553 6.551,5.543 0,3.652 -2.1,5.248 -7.012,5.248 H -4.242 V 0 Z m -4.242,-2.814 v -12.43 h -3.61 v 28.89 h 7.432 c 7.139,0 10.834,-2.771 10.834,-8.103 0,-4.117 -2.184,-6.51 -6.299,-7.727 l 7.811,-13.06 H 7.602 l -7.055,12.43 z"
             style="fill:#2a3c90;fill-opacity:1;fill-rule:nonzero;stroke:none"
             id="path22" />
        </g>
        <g
           id="g24"
           transform="translate(249.2373,202.5586)">
          <path
             d="m 0,0 c 0,4.451 -1.764,7.014 -5.418,7.014 -3.064,0 -5.121,-2.184 -5.416,-7.35 H 0 Z m 3.402,-2.939 h -14.236 c 0.377,-5.332 2.814,-7.434 6.174,-7.434 2.224,0 3.863,0.631 5.793,1.975 l 1.555,-2.1 c -2.141,-1.723 -4.579,-2.772 -7.602,-2.772 -6.088,0 -9.656,4.327 -9.656,11.338 0,6.93 3.441,11.758 9.07,11.758 5.92,0 8.984,-4.156 8.984,-10.834 0,-0.756 -0.041,-1.471 -0.082,-1.931"
             style="fill:#2a3c90;fill-opacity:1;fill-rule:nonzero;stroke:none"
             id="path26" />
        </g>
        <g
           id="g28"
           transform="translate(287.2021,205.623)">
          <path
             d="m 0,0 v -15.83 h -3.527 v 15.326 c 0,3.402 -1.43,4.494 -3.235,4.494 -2.476,0 -3.906,-1.638 -5.459,-4.072 V -15.83 h -3.527 v 15.326 c 0,3.402 -1.428,4.494 -3.232,4.494 -2.438,0 -3.907,-1.638 -5.418,-4.072 V -15.83 h -3.528 V 6.258 h 3.024 l 0.293,-3.317 c 1.554,2.266 3.613,3.821 6.468,3.821 2.77,0 4.745,-1.555 5.543,-4.116 1.594,2.436 3.696,4.116 6.676,4.116 C -2.311,6.762 0,4.158 0,0"
             style="fill:#2a3c90;fill-opacity:1;fill-rule:nonzero;stroke:none"
             id="path30" />
        </g>
        <g
           id="g32"
           transform="translate(297.3701,200.7949)">
          <path
             d="m 0,0 c 0,-5.836 2.098,-8.65 5.92,-8.65 3.822,0 5.963,2.814 5.963,8.734 0,5.838 -2.1,8.65 -5.922,8.65 C 2.184,8.734 0,5.922 0,0 m 15.662,0.084 c 0,-6.928 -3.568,-11.59 -9.742,-11.59 -6.174,0 -9.701,4.494 -9.701,11.506 0,6.93 3.57,11.59 9.742,11.59 6.215,0 9.701,-4.451 9.701,-11.506"
             style="fill:#2a3c90;fill-opacity:1;fill-rule:nonzero;stroke:none"
             id="path34" />
        </g>
        <g
           id="g36"
           transform="translate(330.5068,190.7598)">
          <path
             d="m 0,0 c -1.43,-0.967 -3.023,-1.471 -4.871,-1.471 -3.654,0 -5.838,2.143 -5.838,6.174 v 13.688 h -3.822 v 2.73 h 3.822 v 5.082 l 3.527,0.377 v -5.459 h 5.334 l -0.379,-2.73 H -7.182 V 4.871 c 0,-2.31 0.799,-3.402 2.772,-3.402 1.051,0 1.972,0.293 3.066,0.965 z"
             style="fill:#2a3c90;fill-opacity:1;fill-rule:nonzero;stroke:none"
             id="path38" />
        </g>
        <g
           id="g40"
           transform="translate(347.5146,202.5586)">
          <path
             d="m 0,0 c 0,4.451 -1.764,7.014 -5.418,7.014 -3.064,0 -5.121,-2.184 -5.416,-7.35 H 0 Z m 3.402,-2.939 h -14.236 c 0.377,-5.332 2.814,-7.434 6.174,-7.434 2.224,0 3.863,0.631 5.793,1.975 l 1.555,-2.1 c -2.141,-1.723 -4.579,-2.772 -7.602,-2.772 -6.088,0 -9.656,4.327 -9.656,11.338 0,6.93 3.441,11.758 9.07,11.758 5.92,0 8.984,-4.156 8.984,-10.834 0,-0.756 -0.041,-1.471 -0.082,-1.931"
             style="fill:#2a3c90;fill-opacity:1;fill-rule:nonzero;stroke:none"
             id="path42" />
        </g>
        <g
           id="g44"
           transform="translate(384.7666,215.8691)">
          <path
             d="m 0,0 -2.057,-2.309 c -2.101,1.848 -4.117,2.604 -6.55,2.604 -3.067,0 -5.375,-1.471 -5.375,-4.283 0,-2.563 1.216,-3.78 6.423,-5.375 4.745,-1.428 8.483,-3.276 8.483,-8.692 0,-5.039 -3.779,-8.525 -10.121,-8.525 -4.114,0 -7.305,1.385 -9.699,3.695 l 2.14,2.352 c 1.975,-1.889 4.326,-3.024 7.518,-3.024 3.527,0 6.383,1.807 6.383,5.375 0,2.983 -1.428,4.284 -6.383,5.795 -5.67,1.723 -8.483,3.864 -8.483,8.274 0,4.324 3.696,7.431 8.946,7.431 C -4.83,3.318 -2.352,2.143 0,0"
             style="fill:#2a3c90;fill-opacity:1;fill-rule:nonzero;stroke:none"
             id="path46" />
        </g>
        <g
           id="g48"
           transform="translate(402.5342,190.7598)">
          <path
             d="m 0,0 c -1.43,-0.967 -3.023,-1.471 -4.871,-1.471 -3.654,0 -5.838,2.143 -5.838,6.174 v 13.688 h -3.822 v 2.73 h 3.822 v 5.082 l 3.527,0.377 v -5.459 h 5.334 l -0.379,-2.73 H -7.182 V 4.871 c 0,-2.31 0.799,-3.402 2.772,-3.402 1.051,0 1.972,0.293 3.066,0.965 z"
             style="fill:#2a3c90;fill-opacity:1;fill-rule:nonzero;stroke:none"
             id="path50" />
        </g>
        <g
           id="g52"
           transform="translate(419.7939,189.793)">
          <path
             d="m 0,0 -0.295,3.568 c -1.637,-2.687 -3.736,-4.072 -6.928,-4.072 -3.904,0 -6.173,2.436 -6.173,6.76 v 15.832 h 3.527 V 6.635 c 0,-3.149 1.094,-4.324 3.613,-4.324 2.52,0 4.367,1.636 5.752,3.945 V 22.088 H 3.023 V 0 Z"
             style="fill:#2a3c90;fill-opacity:1;fill-rule:nonzero;stroke:none"
             id="path54" />
        </g>
        <g
           id="g56"
           transform="translate(444.2363,195.5879)">
          <path
             d="m 0,0 v 11.002 c -1.344,1.807 -2.938,2.982 -5.248,2.982 -3.443,0 -5.627,-2.898 -5.627,-8.777 0,-5.879 1.932,-8.691 5.25,-8.691 2.561,0 4.156,1.257 5.625,3.484 M 3.527,-5.795 H 0.463 l -0.377,3.107 c -1.387,-2.183 -3.613,-3.611 -6.426,-3.611 -5.332,0 -8.313,4.535 -8.313,11.463 0,6.762 3.231,11.633 8.649,11.633 2.688,0 4.578,-1.26 6.004,-2.772 v 11.59 l 3.527,-0.42 z"
             style="fill:#2a3c90;fill-opacity:1;fill-rule:nonzero;stroke:none"
             id="path58" />
        </g>
        <g
           id="g60"
           transform="translate(468.9316,202.5586)">
          <path
             d="m 0,0 c 0,4.451 -1.764,7.014 -5.418,7.014 -3.064,0 -5.121,-2.184 -5.416,-7.35 H 0 Z m 3.402,-2.939 h -14.236 c 0.377,-5.332 2.814,-7.434 6.174,-7.434 2.224,0 3.863,0.631 5.793,1.975 l 1.555,-2.1 c -2.141,-1.723 -4.579,-2.772 -7.602,-2.772 -6.088,0 -9.656,4.327 -9.656,11.338 0,6.93 3.441,11.758 9.07,11.758 5.92,0 8.984,-4.156 8.984,-10.834 0,-0.756 -0.041,-1.471 -0.082,-1.931"
             style="fill:#2a3c90;fill-opacity:1;fill-rule:nonzero;stroke:none"
             id="path62" />
        </g>
        <g
           id="g64"
           transform="translate(495.5605,205.623)">
          <path
             d="m 0,0 v -15.83 h -3.527 v 15.326 c 0,3.402 -1.387,4.494 -3.655,4.494 -2.603,0 -4.367,-1.638 -5.879,-4.072 V -15.83 h -3.527 V 6.258 h 3.024 l 0.294,-3.317 c 1.637,2.266 3.946,3.821 6.928,3.821 C -2.311,6.762 0,4.199 0,0"
             style="fill:#2a3c90;fill-opacity:1;fill-rule:nonzero;stroke:none"
             id="path66" />
        </g>
        <g
           id="g68"
           transform="translate(514.416,190.7598)">
          <path
             d="m 0,0 c -1.426,-0.967 -3.023,-1.471 -4.871,-1.471 -3.652,0 -5.836,2.143 -5.836,6.174 v 13.688 h -3.82 v 2.73 h 3.82 v 5.082 l 3.527,0.377 v -5.459 h 5.332 l -0.377,-2.73 H -7.18 V 4.871 c 0,-2.31 0.797,-3.402 2.772,-3.402 1.049,0 1.974,0.293 3.064,0.965 z"
             style="fill:#2a3c90;fill-opacity:1;fill-rule:nonzero;stroke:none"
             id="path70" />
        </g>
        <g
           id="g72"
           transform="translate(533.5684,215.7441)">
          <path
             d="m 0,0 v -10.162 h 9.574 v -2.897 H 0 V -25.951 H -3.609 V 2.939 H 11.508 L 11.086,0 Z"
             style="fill:#2a3c90;fill-opacity:1;fill-rule:nonzero;stroke:none"
             id="path74" />
        </g>
        <g
           id="g76"
           transform="translate(561.791,212.1328)">
          <path
             d="m 0,0 -0.629,-3.443 c -0.672,0.168 -1.135,0.252 -1.934,0.252 -2.812,0 -4.408,-1.975 -5.416,-6.215 V -22.34 h -3.527 v 22.088 h 3.024 l 0.336,-4.619 c 1.175,3.4 3.232,5.123 5.962,5.123 C -1.428,0.252 -0.629,0.168 0,0"
             style="fill:#2a3c90;fill-opacity:1;fill-rule:nonzero;stroke:none"
             id="path78" />
        </g>
        <g
           id="g80"
           transform="translate(577.457,195.5879)">
          <path
             d="m 0,0 v 5.25 h -3.15 c -4.114,0 -6.297,-1.555 -6.297,-4.703 0,-2.688 1.384,-4.158 4.031,-4.158 2.393,0 4.156,1.216 5.416,3.611 m 3.527,-0.715 c 0,-2.056 0.672,-2.687 1.848,-3.105 l -0.84,-2.479 c -2.142,0.295 -3.527,1.176 -4.115,3.401 -1.555,-2.352 -3.906,-3.401 -6.635,-3.401 -4.367,0 -6.971,2.729 -6.971,6.678 0,4.703 3.528,7.264 9.575,7.264 H 0 v 1.72 c 0,3.278 -1.553,4.535 -4.744,4.535 -1.68,0 -3.695,-0.418 -5.965,-1.216 l -0.881,2.603 c 2.647,1.008 5.039,1.512 7.475,1.512 5.25,0 7.642,-2.688 7.642,-7.266 z"
             style="fill:#2a3c90;fill-opacity:1;fill-rule:nonzero;stroke:none"
             id="path82" />
        </g>
        <g
           id="g84"
           transform="translate(617.0605,205.623)">
          <path
             d="m 0,0 v -15.83 h -3.527 v 15.326 c 0,3.402 -1.43,4.494 -3.235,4.494 -2.476,0 -3.906,-1.638 -5.459,-4.072 V -15.83 h -3.527 v 15.326 c 0,3.402 -1.428,4.494 -3.232,4.494 -2.438,0 -3.907,-1.638 -5.418,-4.072 V -15.83 h -3.528 V 6.258 h 3.024 l 0.293,-3.317 c 1.554,2.266 3.613,3.821 6.468,3.821 2.77,0 4.745,-1.555 5.543,-4.116 1.594,2.436 3.696,4.116 6.676,4.116 C -2.311,6.762 0,4.158 0,0"
             style="fill:#2a3c90;fill-opacity:1;fill-rule:nonzero;stroke:none"
             id="path86" />
        </g>
        <g
           id="g88"
           transform="translate(638.0195,202.5586)">
          <path
             d="m 0,0 c 0,4.451 -1.764,7.014 -5.416,7.014 -3.066,0 -5.125,-2.184 -5.418,-7.35 H 0 Z m 3.4,-2.939 h -14.234 c 0.379,-5.332 2.813,-7.434 6.172,-7.434 2.226,0 3.863,0.631 5.797,1.975 l 1.553,-2.1 c -2.143,-1.723 -4.577,-2.772 -7.6,-2.772 -6.09,0 -9.66,4.327 -9.66,11.338 0,6.93 3.445,11.758 9.07,11.758 5.922,0 8.988,-4.156 8.988,-10.834 0,-0.756 -0.043,-1.471 -0.086,-1.931"
             style="fill:#2a3c90;fill-opacity:1;fill-rule:nonzero;stroke:none"
             id="path90" />
        </g>
        <g
           id="g92"
           transform="translate(663.0488,189.793)">
          <path
             d="M 0,0 -4.072,18.896 -8.271,0 h -4.704 l -5.248,22.088 h 3.569 l 4.158,-19.609 4.535,19.609 h 3.945 L 2.352,2.479 6.551,22.088 H 9.91 L 4.83,0 Z"
             style="fill:#2a3c90;fill-opacity:1;fill-rule:nonzero;stroke:none"
             id="path94" />
        </g>
        <g
           id="g96"
           transform="translate(680.1465,200.7949)">
          <path
             d="m 0,0 c 0,-5.836 2.102,-8.65 5.922,-8.65 3.82,0 5.963,2.814 5.963,8.734 0,5.838 -2.1,8.65 -5.92,8.65 C 2.184,8.734 0,5.922 0,0 m 15.664,0.084 c 0,-6.928 -3.57,-11.59 -9.742,-11.59 -6.172,0 -9.699,4.494 -9.699,11.506 0,6.93 3.568,11.59 9.742,11.59 6.215,0 9.699,-4.451 9.699,-11.506"
             style="fill:#2a3c90;fill-opacity:1;fill-rule:nonzero;stroke:none"
             id="path98" />
        </g>
        <g
           id="g100"
           transform="translate(713.9121,212.1328)">
          <path
             d="m 0,0 -0.629,-3.443 c -0.672,0.168 -1.135,0.252 -1.934,0.252 -2.812,0 -4.408,-1.975 -5.416,-6.215 V -22.34 h -3.527 v 22.088 h 3.024 l 0.336,-4.619 c 1.175,3.4 3.232,5.123 5.962,5.123 C -1.428,0.252 -0.629,0.168 0,0"
             style="fill:#2a3c90;fill-opacity:1;fill-rule:nonzero;stroke:none"
             id="path102" />
        </g>
        <g
           id="g104"
           transform="translate(735.584,189.793)">
          <path
             d="m 0,0 h -4.242 l -9.071,12.053 8.399,10.035 h 3.947 l -8.398,-9.785 z m -17.092,0 v 30.99 l 3.528,0.42 V 0 Z"
             style="fill:#2a3c90;fill-opacity:1;fill-rule:nonzero;stroke:none"
             id="path106" />
        </g>
        <g
           id="g108"
           transform="translate(214.9248,166.8555)">
          <path
             d="M 0,0 V -3.191 H 5.459 L 5.082,-5.92 H 0 V -25.279 H -3.527 V -5.92 h -3.907 v 2.729 h 3.907 v 3.15 c 0,3.652 2.394,6.172 6.718,6.172 2.059,0 3.528,-0.379 5.25,-1.133 L 7.307,2.436 C 5.879,3.064 4.578,3.275 3.402,3.275 0.924,3.275 0,2.225 0,0"
             style="fill:#2a3c90;fill-opacity:1;fill-rule:nonzero;stroke:none"
             id="path110" />
        </g>
        <g
           id="g112"
           transform="translate(227.1475,152.5781)">
          <path
             d="m 0,0 c 0,-5.838 2.098,-8.65 5.92,-8.65 3.822,0 5.963,2.812 5.963,8.734 0,5.836 -2.1,8.65 -5.922,8.65 C 2.184,8.734 0,5.92 0,0 m 15.662,0.084 c 0,-6.93 -3.568,-11.59 -9.742,-11.59 -6.174,0 -9.701,4.492 -9.701,11.506 0,6.928 3.57,11.59 9.742,11.59 6.215,0 9.701,-4.451 9.701,-11.506"
             style="fill:#2a3c90;fill-opacity:1;fill-rule:nonzero;stroke:none"
             id="path114" />
        </g>
        <g
           id="g116"
           transform="translate(260.9111,163.916)">
          <path
             d="m 0,0 -0.631,-3.443 c -0.672,0.168 -1.133,0.252 -1.93,0.252 -2.814,0 -4.41,-1.973 -5.418,-6.215 V -22.34 h -3.527 v 22.088 h 3.024 l 0.336,-4.619 c 1.175,3.402 3.234,5.123 5.962,5.123 C -1.428,0.252 -0.631,0.168 0,0"
             style="fill:#2a3c90;fill-opacity:1;fill-rule:nonzero;stroke:none"
             id="path118" />
        </g>
        <g
           id="g120"
           transform="translate(292.7041,167.6543)">
          <path
             d="m 0,0 -2.057,-2.311 c -2.101,1.848 -4.117,2.604 -6.55,2.604 -3.067,0 -5.375,-1.469 -5.375,-4.283 0,-2.561 1.216,-3.78 6.423,-5.375 4.745,-1.428 8.483,-3.276 8.483,-8.694 0,-5.039 -3.779,-8.523 -10.121,-8.523 -4.114,0 -7.305,1.387 -9.699,3.695 l 2.14,2.352 c 1.975,-1.891 4.326,-3.024 7.518,-3.024 3.527,0 6.383,1.805 6.383,5.375 0,2.981 -1.428,4.284 -6.383,5.795 -5.67,1.721 -8.483,3.864 -8.483,8.272 0,4.326 3.696,7.433 8.946,7.433 C -4.83,3.316 -2.352,2.141 0,0"
             style="fill:#2a3c90;fill-opacity:1;fill-rule:nonzero;stroke:none"
             id="path122" />
        </g>
        <g
           id="g124"
           transform="translate(312.5283,154.3418)">
          <path
             d="m 0,0 c 0,4.451 -1.764,7.012 -5.416,7.012 -3.066,0 -5.125,-2.184 -5.418,-7.348 H 0 Z m 3.4,-2.939 h -14.234 c 0.379,-5.334 2.813,-7.432 6.172,-7.432 2.226,0 3.863,0.629 5.797,1.973 l 1.553,-2.1 c -2.143,-1.721 -4.577,-2.772 -7.6,-2.772 -6.09,0 -9.66,4.325 -9.66,11.338 0,6.928 3.445,11.758 9.07,11.758 5.922,0 8.988,-4.158 8.988,-10.834 0,-0.756 -0.043,-1.469 -0.086,-1.931"
             style="fill:#2a3c90;fill-opacity:1;fill-rule:nonzero;stroke:none"
             id="path126" />
        </g>
        <g
           id="g128"
           transform="translate(337.1396,161.8164)">
          <path
             d="m 0,0 -1.766,-2.311 c -1.425,1.176 -2.855,1.723 -4.744,1.723 -3.611,0 -5.92,-2.812 -5.92,-8.734 0,-5.879 2.309,-8.399 5.92,-8.399 1.889,0 3.233,0.588 4.83,1.805 L 0,-18.309 c -1.891,-1.595 -4.117,-2.435 -6.637,-2.435 -5.879,0 -9.574,4.242 -9.574,11.379 0,7.054 3.654,11.717 9.574,11.717 C -4.074,2.352 -2.016,1.68 0,0"
             style="fill:#2a3c90;fill-opacity:1;fill-rule:nonzero;stroke:none"
             id="path130" />
        </g>
        <g
           id="g132"
           transform="translate(355.7451,141.5762)">
          <path
             d="m 0,0 -0.293,3.57 c -1.639,-2.687 -3.738,-4.074 -6.93,-4.074 -3.906,0 -6.172,2.436 -6.172,6.762 v 15.83 h 3.528 V 6.635 c 0,-3.151 1.09,-4.326 3.609,-4.326 2.52,0 4.367,1.638 5.754,3.949 v 15.83 H 3.023 V 0 Z"
             style="fill:#2a3c90;fill-opacity:1;fill-rule:nonzero;stroke:none"
             id="path134" />
        </g>
        <g
           id="g136"
           transform="translate(378.4678,163.916)">
          <path
             d="m 0,0 -0.629,-3.443 c -0.672,0.168 -1.135,0.252 -1.934,0.252 -2.812,0 -4.408,-1.973 -5.416,-6.215 V -22.34 h -3.527 v 22.088 h 3.024 l 0.336,-4.619 c 1.175,3.402 3.232,5.123 5.962,5.123 C -1.428,0.252 -0.629,0.168 0,0"
             style="fill:#2a3c90;fill-opacity:1;fill-rule:nonzero;stroke:none"
             id="path138" />
        </g>
        <path
           d="m 383.048,163.664 h 3.527 v -22.088 h -3.527 z m 4.24,7.979 c 0,-1.387 -1.008,-2.436 -2.519,-2.436 -1.469,0 -2.477,1.049 -2.477,2.436 0,1.386 1.008,2.435 2.477,2.435 1.511,0 2.519,-1.049 2.519,-2.435"
           style="fill:#2a3c90;fill-opacity:1;fill-rule:nonzero;stroke:none"
           id="path140" />
        <g
           id="g142"
           transform="translate(411.3506,157.4082)">
          <path
             d="m 0,0 v -15.832 h -3.527 v 15.328 c 0,3.4 -1.385,4.492 -3.653,4.492 -2.603,0 -4.367,-1.636 -5.879,-4.074 v -15.746 h -3.527 V 6.256 h 3.023 L -13.27,2.938 C -11.631,5.207 -9.32,6.76 -6.34,6.76 -2.309,6.76 0,4.199 0,0"
             style="fill:#2a3c90;fill-opacity:1;fill-rule:nonzero;stroke:none"
             id="path144" />
        </g>
        <g
           id="g146"
           transform="translate(420.9717,156.5254)">
          <path
             d="m 0,0 c 0,-3.107 1.766,-5.164 4.871,-5.164 3.15,0 4.83,1.889 4.83,5.164 0,3.275 -1.638,5.082 -4.912,5.082 C 1.639,5.082 0,2.939 0,0 M 15.831,6.258 C 14.067,5.711 12.011,5.627 9.449,5.586 c 2.562,-1.135 3.863,-2.982 3.863,-5.67 0,-4.326 -3.108,-7.432 -8.314,-7.432 -1.008,0 -1.932,0.125 -2.814,0.418 -0.754,-0.504 -1.217,-1.3 -1.217,-2.183 0,-1.049 0.672,-1.889 3.023,-1.889 h 3.528 c 4.493,0 7.43,-2.56 7.43,-6.006 0,-4.24 -3.4,-6.633 -10.159,-6.633 -7.098,0 -9.406,2.141 -9.406,6.592 h 3.191 c 0,-2.646 1.258,-3.822 6.215,-3.822 4.871,0 6.591,1.303 6.591,3.613 0,2.184 -1.72,3.274 -4.575,3.274 H 3.318 c -3.863,0 -5.627,1.933 -5.627,4.117 0,1.469 0.84,2.855 2.395,3.863 -2.52,1.344 -3.695,3.274 -3.695,6.172 0,4.492 3.527,7.643 8.398,7.643 5.583,-0.127 7.515,0.712 9.991,1.847 z"
             style="fill:#2a3c90;fill-opacity:1;fill-rule:nonzero;stroke:none"
             id="path148" />
        </g>
        <g
           id="g150"
           transform="translate(456.0801,167.5273)">
          <path
             d="m 0,0 v -9.742 h 9.869 v -2.94 H 0 v -10.33 h 12.094 v -2.939 H -3.609 v 28.89 h 15.41 L 11.381,0 Z"
             style="fill:#2a3c90;fill-opacity:1;fill-rule:nonzero;stroke:none"
             id="path152" />
        </g>
        <g
           id="g154"
           transform="translate(485.9824,141.5762)">
          <path
             d="M 0,0 -5.625,9.574 -11.336,0 h -3.99 l 7.726,11.674 -6.802,10.414 h 4.115 l 4.83,-8.272 4.828,8.272 H 3.359 L -3.441,11.842 4.285,0 Z"
             style="fill:#2a3c90;fill-opacity:1;fill-rule:nonzero;stroke:none"
             id="path156" />
        </g>
        <g
           id="g158"
           transform="translate(505.7227,147.3711)">
          <path
             d="m 0,0 v 5.248 h -3.15 c -4.114,0 -6.297,-1.553 -6.297,-4.703 0,-2.688 1.384,-4.156 4.031,-4.156 2.393,0 4.156,1.218 5.416,3.611 m 3.527,-0.713 c 0,-2.058 0.672,-2.687 1.848,-3.109 l -0.84,-2.477 c -2.142,0.293 -3.527,1.176 -4.115,3.403 -1.555,-2.352 -3.906,-3.403 -6.635,-3.403 -4.367,0 -6.971,2.731 -6.971,6.676 0,4.703 3.528,7.266 9.575,7.266 H 0 v 1.722 c 0,3.274 -1.553,4.535 -4.744,4.535 -1.68,0 -3.695,-0.421 -5.965,-1.218 l -0.881,2.603 c 2.647,1.008 5.039,1.512 7.475,1.512 5.25,0 7.642,-2.688 7.642,-7.264 z"
             style="fill:#2a3c90;fill-opacity:1;fill-rule:nonzero;stroke:none"
             id="path160" />
        </g>
        <g
           id="g162"
           transform="translate(545.3262,157.4082)">
          <path
             d="m 0,0 v -15.832 h -3.527 v 15.328 c 0,3.4 -1.43,4.492 -3.235,4.492 -2.476,0 -3.906,-1.636 -5.459,-4.074 v -15.746 h -3.527 v 15.328 c 0,3.4 -1.428,4.492 -3.232,4.492 -2.438,0 -3.907,-1.636 -5.418,-4.074 v -15.746 h -3.528 V 6.256 h 3.024 l 0.293,-3.318 c 1.554,2.269 3.613,3.822 6.468,3.822 2.77,0 4.745,-1.553 5.543,-4.115 1.594,2.435 3.696,4.115 6.676,4.115 C -2.311,6.76 0,4.156 0,0"
             style="fill:#2a3c90;fill-opacity:1;fill-rule:nonzero;stroke:none"
             id="path164" />
        </g>
        <g
           id="g166"
           transform="translate(566.5801,161.6484)">
          <path
             d="m 0,0 -1.555,-2.352 c -1.931,1.428 -3.611,2.057 -5.711,2.057 -2.603,0 -4.283,-1.217 -4.283,-3.105 0,-1.891 1.26,-2.731 4.912,-3.696 4.662,-1.218 7.266,-2.982 7.266,-6.845 0,-4.495 -4.074,-6.635 -8.524,-6.635 -3.738,0 -6.341,1.219 -8.273,2.898 l 1.973,2.225 c 1.722,-1.428 3.738,-2.268 6.215,-2.268 2.941,0 4.914,1.387 4.914,3.444 0,2.435 -1.133,3.275 -5.5,4.451 -4.747,1.26 -6.637,3.234 -6.637,6.383 0,3.443 3.318,5.963 7.812,5.963 C -4.367,2.52 -2.102,1.596 0,0"
             style="fill:#2a3c90;fill-opacity:1;fill-rule:nonzero;stroke:none"
             id="path168" />
        </g>
        <g
           id="g170"
           transform="translate(243.8311,390.6919)">
          <path
             d="m 0,0 c 7.533,-2.441 9.986,-3.941 13.611,-5.877 3.895,-2.08 7.063,-3.861 9.887,-6.684 2.828,-2.826 5.057,-6.146 6.68,-9.941 1.636,-3.807 2.453,-7.842 2.453,-12.119 0,-4.27 -0.817,-8.313 -2.453,-12.117 -1.623,-3.805 -3.852,-7.112 -6.68,-9.942 -2.824,-2.824 -6.115,-5.05 -9.887,-6.679 C 9.84,-64.99 5.824,-65.813 1.547,-65.813 h -33.584 c -0.01,-10.128 -0.029,-21.148 -0.059,-31.059 l 32.547,0.204 13.586,-31.411 h 33.145 l -17.276,40.754 c 4.49,2.825 8.549,6.157 12.168,10.001 3.631,3.836 6.688,8.035 9.186,12.601 2.5,4.559 4.418,9.383 5.765,14.453 1.332,5.073 2.006,10.29 2.006,15.649 0,5.728 -0.744,11.23 -2.228,16.521 -1.483,5.293 -3.588,10.246 -6.301,14.881 -2.721,4.641 -5.981,8.86 -9.783,12.666 -3.801,3.803 -8.004,7.059 -12.604,9.783 -4.601,2.715 -9.547,4.813 -14.84,6.301"
             style="fill:#f89521;fill-opacity:1;fill-rule:nonzero;stroke:none"
             id="path172" />
        </g>
        <g
           id="g174"
           transform="translate(313.376,369.2251)">
          <path
             d="m 0,0 c 0,6.461 1.236,12.52 3.699,18.182 2.471,5.656 5.822,10.609 10.074,14.855 4.241,4.238 9.194,7.598 14.856,10.063 5.658,2.468 11.717,3.707 18.174,3.707 h 71.624 V 15.566 H 46.803 c -2.178,0 -4.205,-0.4 -6.098,-1.199 C 38.816,13.572 37.168,12.463 35.754,11.049 34.34,9.635 33.238,7.979 32.438,6.094 31.639,4.209 31.236,2.178 31.236,0 c 0,-2.178 0.403,-4.229 1.202,-6.146 0.8,-1.922 1.902,-3.592 3.316,-5.008 1.414,-1.414 3.062,-2.528 4.951,-3.321 1.893,-0.798 3.92,-1.199 6.098,-1.199 h 31.238 c 6.459,0 12.533,-1.213 18.234,-3.648 5.694,-2.428 10.663,-5.766 14.914,-10.012 4.245,-4.242 7.578,-9.213 10.011,-14.91 2.436,-5.699 3.647,-11.774 3.647,-18.231 0,-6.463 -1.211,-12.518 -3.647,-18.176 -2.433,-5.664 -5.766,-10.615 -10.011,-14.861 -4.251,-4.24 -9.22,-7.598 -14.914,-10.065 -5.701,-2.468 -11.775,-3.703 -18.234,-3.703 H 8.715 v 31.238 h 69.326 c 2.178,0 4.207,0.401 6.1,1.2 1.882,0.795 3.535,1.904 4.949,3.32 1.416,1.41 2.517,3.066 3.316,4.951 0.801,1.885 1.203,3.916 1.203,6.096 0,2.178 -0.402,4.207 -1.203,6.1 -0.799,1.885 -1.9,3.533 -3.316,4.951 -1.414,1.412 -3.067,2.516 -4.949,3.317 -1.893,0.796 -3.922,1.193 -6.1,1.193 H 46.803 c -6.457,0 -12.516,1.238 -18.174,3.705 -5.662,2.465 -10.615,5.82 -14.856,10.07 C 9.521,-28.898 6.17,-23.928 3.699,-18.227 1.236,-12.533 0,-6.457 0,0"
             style="fill:#f89521;fill-opacity:1;fill-rule:nonzero;stroke:none"
             id="path176" />
        </g>
        <g
           id="g178"
           transform="translate(613.5703,259.9453)">
          <path
             d="m 0,0 h -31.127 v 111.459 c 0,2.172 -0.422,4.209 -1.256,6.094 -0.838,1.885 -1.959,3.541 -3.373,4.951 -1.412,1.416 -3.057,2.526 -4.949,3.323 -1.893,0.798 -3.924,1.197 -6.1,1.197 -2.175,0 -4.207,-0.399 -6.09,-1.197 -1.892,-0.797 -3.546,-1.907 -4.953,-3.323 -1.422,-1.41 -2.523,-3.066 -3.324,-4.951 -0.807,-1.885 -1.201,-3.922 -1.201,-6.094 V 0 h -31.24 v 111.459 c 0,2.172 -0.393,4.209 -1.194,6.094 -0.797,1.885 -1.9,3.541 -3.324,4.951 -1.404,1.416 -3.058,2.526 -4.941,3.323 -1.893,0.798 -3.92,1.197 -6.098,1.197 -2.178,0 -4.207,-0.399 -6.09,-1.197 -1.89,-0.797 -3.545,-1.907 -4.959,-3.323 -1.416,-1.41 -2.527,-3.066 -3.316,-4.951 -0.799,-1.885 -1.203,-3.922 -1.203,-6.094 V 0 h -31.239 v 111.459 c 0,6.456 1.219,12.534 3.647,18.233 2.434,5.689 5.768,10.664 10.01,14.91 4.254,4.246 9.215,7.576 14.918,10.012 5.693,2.433 11.777,3.646 18.232,3.646 5.803,0 11.389,-1.031 16.764,-3.103 5.373,-2.065 10.195,-5.063 14.472,-8.979 4.282,3.916 9.086,6.914 14.42,8.979 5.338,2.072 10.905,3.103 16.709,3.103 6.457,0 12.537,-1.213 18.231,-3.646 5.695,-2.436 10.664,-5.766 14.908,-10.012 4.252,-4.246 7.588,-9.221 10.021,-14.91 C -1.211,123.993 0,117.915 0,111.459 Z"
             style="fill:#f89521;fill-opacity:1;fill-rule:nonzero;stroke:none"
             id="path180" />
        </g>
        <g
           id="g182"
           transform="translate(672.668,259.9453)">
          <path
             d="M 0,0 H -31.24 V 156.086 H 78.043 V 124.848 H 0 V 93.608 H 46.805 V 62.368 H 0 Z"
             style="fill:#f89521;fill-opacity:1;fill-rule:nonzero;stroke:none"
             id="path184" />
        </g>
        <g
           id="g186"
           transform="translate(240.5889,373.4321)">
          <path
             d="m 0,0 c -9.375,0 -16.84,-7.395 -16.85,-16.686 -0.005,-9.384 7.522,-16.945 16.85,-16.916 9.27,0.024 16.77,7.553 16.777,16.838 C 16.779,-7.432 9.346,-0.006 0,0"
             style="fill:#2a3c90;fill-opacity:1;fill-rule:evenodd;stroke:none"
             id="path188" />
        </g>
        <g
           id="g190"
           transform="translate(195.4521,416.9771)">
          <path
             d="M 0,0 -0.01,0.014 C -0.094,-0.039 -0.186,-0.098 -0.285,-0.148 -0.379,-0.197 -0.48,-0.242 -0.578,-0.297 l 0.01,-0.006 C -18.25,-10.324 -29.355,-27.66 -32.104,-46.453 l 17.78,-2.274 c 2.049,13.358 9.976,25.643 22.545,32.778 12.877,6.576 27.506,6.451 39.789,0.803 L 55.887,0.955 C 38.674,8.998 18.084,9.258 0,0"
             style="fill:#2a3c90;fill-opacity:1;fill-rule:nonzero;stroke:none"
             id="path192" />
        </g>
        <g
           id="g194"
           transform="translate(181.9775,441.9771)">
          <path
             d="m 0,0 -0.004,0.012 c -0.09,-0.049 -0.176,-0.106 -0.281,-0.16 -0.09,-0.051 -0.186,-0.098 -0.283,-0.151 l 0.006,-0.012 C -26.605,-14.82 -42.895,-40.285 -46.789,-67.848 l 17.779,-2.275 c 3.188,22.135 16.305,42.553 37.231,54.193 21.234,11.071 45.502,10.801 65.734,1.285 L 81.84,1.453 C 56.678,13.361 26.451,13.76 0,0"
             style="fill:#2a3c90;fill-opacity:1;fill-rule:nonzero;stroke:none"
             id="path196" />
        </g>
        <g
           id="g198"
           transform="translate(169.0615,465.9536)">
          <path
             d="m 0,0 -0.01,0.02 c -0.09,-0.051 -0.179,-0.11 -0.285,-0.157 -0.092,-0.054 -0.18,-0.107 -0.281,-0.15 L -0.57,-0.309 C -34.627,-19.137 -55.9,-52.396 -60.875,-88.375 l 17.762,-2.277 c 4.279,30.543 22.384,58.754 51.326,74.728 29.267,15.389 62.771,14.99 90.635,1.766 l 7.879,16.095 C 73.941,17.564 34.469,18.088 0,0"
             style="fill:#2a3c90;fill-opacity:1;fill-rule:nonzero;stroke:none"
             id="path200" />
        </g>
      </g>
    </g>
  </g>
</svg>
